<svg
  xmlns="http://www.w3.org/2000/svg"
  width="32"
  height="32"
  viewBox="0 0 24 24"
  fill="#b39ddb"
>
  <path d="M12 0C5.37 0 0 5.37 0 12c0 5.3 3.438 9.8 8.205 11.385.6.113.82-.263.82-.583
       0-.288-.01-1.05-.015-2.06-3.338.726-4.042-1.61-4.042-1.61-.546-1.385-1.333-1.754-1.333-1.754-1.09-.745.083-.729.083-.729
       1.205.085 1.84 1.238 1.84 1.238 1.07 1.835 2.807 1.305 3.495.998.108-.775.418-1.305.76-1.605-2.665-.304-5.466-1.332-5.466-5.932
       0-1.31.468-2.382 1.235-3.222-.135-.303-.54-1.527.105-3.176 0 0 1.005-.322 3.3 1.23a11.5 11.5 0 0 1 3-.405c1.02.005 2.045.138 3
       .405 2.28-1.552 3.285-1.23 3.285-1.23.645 1.65.24 2.873.12 3.176.765.84 1.23 1.912 1.23 3.222
       0 4.61-2.805 5.625-5.475 5.922.435.375.81 1.096.81 2.21
       0 1.595-.015 2.88-.015 3.27 0 .315.21.705.825.585C20.565 21.795 24 17.295 24 12
       24 5.37 18.63 0 12 0z"/>
</svg>
